<svg width="100" height="100" viewBox="0 0 100 100" fill="none" xmlns="http://www.w3.org/2000/svg">
<g clip-path="url(#clip0_205_59)">
<g clip-path="url(#clip1_205_59)">
<rect x="1.5" y="0.5" width="100" height="100" rx="10" fill="#7E22CE"/>
<path d="M28.6109 79C27.6204 79 26.7835 78.6583 26.1002 77.975C25.4169 77.2917 25.0752 76.4548 25.0752 75.4643V63.2776C25.0752 61.2609 25.7548 59.5656 27.1139 58.1918C28.473 56.8179 30.1505 56.131 32.1466 56.131H69.9106C71.9273 56.131 73.6226 56.8179 74.9964 58.1918C76.3702 59.5656 77.0571 61.2609 77.0571 63.2776V75.4643C77.0571 76.4548 76.7014 77.2917 75.9898 77.975C75.2783 78.6583 74.4305 79 73.4462 79H28.6109ZM41.0364 53.1219C36.6144 53.1219 32.8362 51.5659 29.7017 48.4539C26.5672 45.3418 25 41.5554 25 37.0946C25 32.6338 26.5672 28.8361 29.7017 25.7017C32.8362 22.5672 36.6144 21 41.0364 21H60.9585C65.4391 21 69.2423 22.5612 72.3682 25.6836C75.4942 28.806 77.0571 32.605 77.0571 37.0805C77.0571 41.556 75.4942 45.3485 72.3682 48.4578C69.2423 51.5672 65.4391 53.1219 60.9585 53.1219H41.0364ZM31.62 72.4553H70.5124V62.6757H31.62V72.4553ZM41.0234 46.5772H60.9585C63.6124 46.5772 65.8682 45.6556 67.7258 43.8126C69.5835 41.9695 70.5124 39.7315 70.5124 37.0986C70.5124 34.4656 69.5835 32.2151 67.7258 30.347C65.8682 28.4788 63.6124 27.5447 60.9585 27.5447H41.0234C38.3904 27.5447 36.1524 28.4714 34.3093 30.3248C32.4663 32.1782 31.5448 34.4288 31.5448 37.0765C31.5448 39.7241 32.4663 41.9695 34.3093 43.8126C36.1524 45.6556 38.3904 46.5772 41.0234 46.5772ZM41.0365 40.3333C41.9806 40.3333 42.7661 40.0133 43.393 39.3732C44.0199 38.7331 44.3334 37.9683 44.3334 37.0788C44.3334 36.1893 44.0155 35.4185 43.3799 34.7665C42.7441 34.1146 41.9668 33.7886 41.0478 33.7886C40.1288 33.7886 39.3558 34.1137 38.7289 34.7639C38.102 35.4141 37.7886 36.1915 37.7886 37.0959C37.7886 38.0004 38.108 38.7661 38.7468 39.393C39.3857 40.0199 40.1489 40.3333 41.0365 40.3333ZM60.9783 40.3333C61.8679 40.3333 62.6386 40.0133 63.2906 39.3732C63.9425 38.7331 64.2685 37.9683 64.2685 37.0788C64.2685 36.1893 63.9434 35.4185 63.2932 34.7665C62.643 34.1146 61.8656 33.7886 60.9612 33.7886C60.0567 33.7886 59.291 34.1137 58.6641 34.7639C58.0372 35.4141 57.7238 36.1915 57.7238 37.0959C57.7238 38.0004 58.0438 38.7661 58.6839 39.393C59.324 40.0199 60.0888 40.3333 60.9783 40.3333Z" fill="white"/>
</g>
<path d="M81.825 84L83.3 82.525C83.5 82.325 83.6 82.0917 83.6 81.825C83.6 81.5583 83.5 81.325 83.3 81.125C83.1 80.925 82.8627 80.825 82.588 80.825C82.3127 80.825 82.075 80.925 81.875 81.125L79.7 83.3C79.6 83.4 79.5293 83.5083 79.488 83.625C79.446 83.7417 79.425 83.8667 79.425 84C79.425 84.1333 79.446 84.2583 79.488 84.375C79.5293 84.4917 79.6 84.6 79.7 84.7L81.875 86.875C82.075 87.075 82.3127 87.175 82.588 87.175C82.8627 87.175 83.1 87.075 83.3 86.875C83.5 86.675 83.6 86.4417 83.6 86.175C83.6 85.9083 83.5 85.675 83.3 85.475L81.825 84ZM88.175 84L86.7 85.475C86.5 85.675 86.4 85.9083 86.4 86.175C86.4 86.4417 86.5 86.675 86.7 86.875C86.9 87.075 87.1377 87.175 87.413 87.175C87.6877 87.175 87.925 87.075 88.125 86.875L90.3 84.7C90.4 84.6 90.4707 84.4917 90.512 84.375C90.554 84.2583 90.575 84.1333 90.575 84C90.575 83.8667 90.554 83.7417 90.512 83.625C90.4707 83.5083 90.4 83.4 90.3 83.3L88.125 81.125C88.025 81.025 87.9127 80.95 87.788 80.9C87.6627 80.85 87.5377 80.825 87.413 80.825C87.2877 80.825 87.1627 80.85 87.038 80.9C86.9127 80.95 86.8 81.025 86.7 81.125C86.5 81.325 86.4 81.5583 86.4 81.825C86.4 82.0917 86.5 82.325 86.7 82.525L88.175 84ZM78 93C77.45 93 76.979 92.8043 76.587 92.413C76.1957 92.021 76 91.55 76 91V77C76 76.45 76.1957 75.979 76.587 75.587C76.979 75.1957 77.45 75 78 75H92C92.55 75 93.021 75.1957 93.413 75.587C93.8043 75.979 94 76.45 94 77V91C94 91.55 93.8043 92.021 93.413 92.413C93.021 92.8043 92.55 93 92 93H78Z" fill="#F5D0FE"/>
</g>
<defs>
<clipPath id="clip0_205_59">
<rect width="100" height="100" fill="white"/>
</clipPath>
<clipPath id="clip1_205_59">
<rect width="100" height="100" fill="white" transform="translate(1)"/>
</clipPath>
</defs>
</svg>
